<svg width="18" height="18" viewBox="0 0 18 18" fill="none" xmlns="http://www.w3.org/2000/svg">
<path d="M14.62 0H3.38C1.51328 0 0 1.51328 0 3.38V14.62C0 16.4867 1.51328 18 3.38 18H14.62C16.4867 18 18 16.4867 18 14.62V3.38C18 1.51328 16.4867 0 14.62 0Z" fill="white"/>
<path d="M7.37012 8.52006C7.84012 8.30006 8.18012 8.02006 8.42012 7.67006C8.66012 7.32006 8.77012 6.89006 8.77012 6.37006C8.77012 5.89006 8.69012 5.48006 8.53012 5.16006C8.37012 4.83006 8.14012 4.57006 7.86012 4.37006C7.57012 4.17006 7.22012 4.03006 6.82012 3.94006C6.41012 3.85006 5.97012 3.81006 5.48012 3.81006H0.620117V14.1101H5.61012C6.07012 14.1101 6.52012 14.0501 6.96012 13.9401C7.40012 13.8201 7.79012 13.6501 8.13012 13.4101C8.47012 13.1701 8.74012 12.8601 8.95012 12.4801C9.15012 12.1001 9.25012 11.6501 9.25012 11.1301C9.25012 10.4901 9.10012 9.94006 8.78012 9.48006C8.47012 9.02006 8.00012 8.70006 7.36012 8.52006H7.37012ZM2.89012 5.58006H5.01012C5.21012 5.58006 5.41012 5.59006 5.59012 5.63006C5.78012 5.66006 5.94012 5.72006 6.09012 5.81006C6.24012 5.89006 6.35012 6.01006 6.44012 6.17006C6.52012 6.32006 6.57012 6.52006 6.57012 6.76006C6.57012 7.19006 6.44012 7.51006 6.18012 7.70006C5.92012 7.89006 5.58012 7.99006 5.18012 7.99006H2.88012V5.58006H2.89012ZM6.85012 11.6801C6.76012 11.8501 6.63012 11.9901 6.48012 12.0901C6.33012 12.1901 6.15012 12.2601 5.95012 12.3101C5.75012 12.3501 5.54012 12.3701 5.31012 12.3701H2.89012V9.53006H5.36012C5.85012 9.53006 6.25012 9.64006 6.54012 9.87006C6.84012 10.1001 6.99012 10.4801 6.99012 11.0101C6.99012 11.2801 6.95012 11.5101 6.85012 11.6801Z" fill="#1B1B1B"/>
<path d="M17.2202 9.2302C17.0802 8.7002 16.8702 8.2302 16.5602 7.8102C16.2602 7.4002 15.8702 7.0702 15.4002 6.8202C14.9302 6.5702 14.3702 6.4502 13.7402 6.4502C13.1702 6.4502 12.6502 6.55019 12.1802 6.75019C11.7102 6.95019 11.3102 7.2302 10.9702 7.5802C10.6302 7.9302 10.3702 8.3502 10.1902 8.8302C10.0102 9.3102 9.91016 9.8302 9.91016 10.3902C9.91016 10.9502 10.0002 11.5002 10.1802 11.9802C10.3602 12.4602 10.6102 12.8802 10.9402 13.2202C11.2702 13.5702 11.6702 13.8302 12.1402 14.0202C12.6102 14.2102 13.1402 14.3002 13.7302 14.3002C14.5702 14.3002 15.3002 14.1102 15.8902 13.7202C16.4902 13.3302 16.9302 12.6902 17.2202 11.7902H15.4202C15.3502 12.0202 15.1702 12.2402 14.8702 12.4502C14.5702 12.6602 14.2102 12.7602 13.8002 12.7602C13.2302 12.7602 12.7802 12.6102 12.4702 12.3102C12.1602 12.0102 11.9602 11.4502 11.9602 10.8602H17.3402C17.3802 10.2802 17.3402 9.7302 17.2002 9.2002L17.2202 9.2302ZM11.9802 9.6002C11.9802 9.4502 12.0202 9.2902 12.0702 9.1102C12.1202 8.9202 12.2102 8.7502 12.3402 8.5802C12.4702 8.4202 12.6502 8.2802 12.8602 8.1702C13.0802 8.0602 13.3502 8.00019 13.6802 8.00019C14.1802 8.00019 14.6002 8.1502 14.8402 8.4202C15.0802 8.6902 15.2602 9.0802 15.3102 9.6002H11.9802Z" fill="#1B1B1B"/>
<path d="M15.7401 4.52002H11.5601V5.54002H15.7401V4.52002Z" fill="#1B1B1B"/>
</svg>
