<svg width="18" height="18" viewBox="0 0 18 18" fill="none" xmlns="http://www.w3.org/2000/svg">
<path d="M14.62 0H3.38C1.51328 0 0 1.51328 0 3.38V14.62C0 16.4867 1.51328 18 3.38 18H14.62C16.4867 18 18 16.4867 18 14.62V3.38C18 1.51328 16.4867 0 14.62 0Z" fill="white"/>
<path d="M13.6101 4.51012C12.3901 3.29012 10.7701 2.62012 9.04008 2.62012C7.31008 2.62012 5.69008 3.29012 4.47008 4.51012C3.25008 5.73012 2.58008 7.35012 2.58008 9.08012C2.58008 10.8101 3.25008 12.4301 4.47008 13.6501C5.69008 14.8701 7.31008 15.5401 9.04008 15.5401C10.7701 15.5401 12.3901 14.8701 13.6101 13.6501C14.8301 12.4301 15.5001 10.8101 15.5001 9.08012C15.5001 7.35012 14.8301 5.73012 13.6101 4.51012ZM10.7301 8.78012C10.5901 8.46012 10.4501 8.13012 10.2901 7.81012C10.5001 7.73012 10.7001 7.64012 10.9001 7.55012C11.9301 7.07012 12.7401 6.47012 13.3401 5.76012C14.0201 6.64012 14.4401 7.74012 14.4701 8.94012C13.1501 8.65012 11.9001 8.60012 10.7301 8.78012ZM12.6301 5.00011C11.9601 5.86011 10.9401 6.46012 9.83008 6.89012C9.69008 6.63012 9.55008 6.37012 9.40008 6.12012C8.80008 5.09012 8.23008 4.30012 7.83008 3.78012C8.22008 3.69012 8.63008 3.64012 9.05008 3.64012C10.4201 3.64012 11.6801 4.15011 12.6401 5.00011H12.6301ZM6.79008 4.13012C7.16008 4.58012 7.81008 5.44012 8.51008 6.64012C8.62008 6.82012 8.73008 7.02012 8.84008 7.22012C6.88008 7.78012 4.82008 7.89012 3.74008 7.91012C4.11008 6.23012 5.26008 4.83012 6.79008 4.13012ZM3.61008 9.07012C3.61008 9.07012 3.61008 8.98012 3.61008 8.94012C4.39008 8.94012 5.79008 8.88012 7.33008 8.61012C8.04008 8.49012 8.70008 8.33012 9.31008 8.15012C9.44008 8.42012 9.58008 8.71012 9.71008 9.01012C8.72008 9.30012 7.80008 9.78011 6.98008 10.4301C6.00008 11.2001 5.35008 12.0601 4.97008 12.6501C4.13008 11.6901 3.61008 10.4401 3.61008 9.06012V9.07012ZM5.73008 13.3801C6.03008 12.8801 6.64008 12.0101 7.61008 11.2501C8.37008 10.6501 9.20007 10.2301 10.1001 9.97012C10.5601 11.1801 10.9601 12.5501 11.2001 14.0601C10.5401 14.3501 9.81008 14.5101 9.04008 14.5101C7.80008 14.5101 6.65008 14.0901 5.73008 13.3801ZM12.1501 13.5201C11.9301 12.2601 11.5801 11.0001 11.1201 9.76012C12.1401 9.63012 13.2301 9.70012 14.3901 9.98012C14.1401 11.4401 13.3101 12.7101 12.1501 13.5201Z" fill="#1B1B1B"/>
</svg>
