<svg width="18" height="18" viewBox="0 0 18 18" fill="none" xmlns="http://www.w3.org/2000/svg">
<path d="M14.62 0H3.38C1.51327 0 0 1.51328 0 3.38V14.62C0 16.4867 1.51327 18 3.38 18H14.62C16.4867 18 18 16.4867 18 14.62V3.38C18 1.51328 16.4867 0 14.62 0Z" fill="white"/>
<path d="M10.7 4.44979C11.29 4.44979 12.3 4.44979 12.3 4.44979V2.42979C12.3 2.42979 11.6 2.40979 10.68 2.42979C9.76 2.44979 7.5 2.51979 7.5 5.17979V6.88979H5.75V8.98979H7.5V15.5498H10V8.98979H12.05L12.29 6.88979H10V5.17979C10 5.17979 10.1 4.44979 10.69 4.44979H10.7Z" fill="#1B1B1B"/>
</svg>
