<svg width="18" height="18" viewBox="0 0 18 18" fill="none" xmlns="http://www.w3.org/2000/svg">
<path d="M14.62 0H3.37999C1.51327 0 0 1.51328 0 3.38V14.62C0 16.4867 1.51327 18 3.37999 18H14.62C16.4867 18 18 16.4867 18 14.62V3.38C18 1.51328 16.4867 0 14.62 0Z" fill="white"/>
<path d="M2.52005 6.48018C2.54005 5.63018 2.67006 4.81018 3.15006 4.08018C3.59006 3.41018 4.20005 2.95018 4.97005 2.69018C5.72005 2.44018 6.50005 2.44018 7.27005 2.43018C8.76005 2.43018 10.2501 2.43018 11.7501 2.44018C12.5901 2.44018 13.3901 2.63018 14.1001 3.10018C14.9001 3.63018 15.3901 4.39018 15.5501 5.33018C15.6501 5.88018 15.6901 6.45018 15.6901 7.02018C15.6901 8.63018 15.6801 10.2302 15.6501 11.8402C15.6401 12.5502 15.4801 13.2202 15.1101 13.8402C14.6601 14.5702 14.0301 15.0602 13.2101 15.3302C12.4601 15.5702 11.7001 15.5802 10.9301 15.5802C9.47006 15.5802 8.00006 15.5802 6.54006 15.5702C5.77006 15.5702 5.03006 15.4402 4.35006 15.0502C3.56006 14.6002 3.03006 13.9402 2.76006 13.0702C2.58006 12.4802 2.54006 11.8802 2.51006 11.2702C2.51006 11.1602 2.50006 7.72018 2.51006 6.49018L2.52005 6.48018ZM3.80005 12.2102C3.87005 12.8402 4.13005 13.4002 4.66005 13.8102C5.18005 14.2102 5.79005 14.3302 6.41005 14.3502C8.38005 14.4002 10.3501 14.4702 12.3201 14.2902C12.7601 14.2502 13.1701 14.0902 13.5201 13.8302C14.2001 13.3202 14.4401 12.5902 14.4601 11.7902C14.5001 10.3102 14.4901 8.83018 14.4801 7.36018C14.4801 6.83018 14.4501 6.30018 14.4001 5.77018C14.3401 5.19018 14.1001 4.69018 13.6601 4.29018C13.1701 3.85018 12.5801 3.68018 11.9501 3.67018C10.3501 3.64018 8.74006 3.62018 7.14006 3.63018C6.55006 3.63018 5.96005 3.63018 5.38005 3.82018C4.40005 4.13018 3.87005 4.88018 3.80005 5.80018C3.71005 6.95018 3.72005 11.4702 3.80005 12.2102Z" fill="#1B1B1B"/>
<path d="M9.12016 5.62032C10.9502 5.61032 12.5102 7.11032 12.5102 9.02032C12.5102 10.9203 10.9202 12.4003 9.09016 12.3903C7.22016 12.3703 5.69015 10.8503 5.71015 8.97032C5.73015 7.09032 7.25016 5.60032 9.12016 5.62032ZM11.3002 9.03032C11.3402 7.87032 10.3402 6.83032 9.12016 6.83032C7.92016 6.83032 6.93016 7.82032 6.93016 8.98032C6.93016 10.2203 7.90016 11.1903 9.14016 11.1903C10.3202 11.1903 11.3102 10.2103 11.3102 9.03032H11.3002Z" fill="#1B1B1B"/>
<path d="M12.63 6.27039C12.19 6.31039 11.84 5.91039 11.83 5.50039C11.82 5.07039 12.21 4.69039 12.64 4.70039C13.08 4.70039 13.46 5.08039 13.44 5.51039C13.42 5.91039 13.1 6.32039 12.63 6.28039V6.27039Z" fill="#1B1B1B"/>
</svg>
