<svg width="211" height="48" viewBox="0 0 211 48" fill="none" xmlns="http://www.w3.org/2000/svg">
<path d="M68.9698 30.2138V40.133L36.8142 45.8337L36.8142 3.07837L41.5864 2.28027L41.5864 41.8432L68.9698 30.2138Z" fill="black"/>
<path d="M136.576 1.25416L136.349 0L105.443 10.7173L107.034 20.4086L128.963 6.72684L111.124 46.7458L111.352 48L142.257 37.3967L140.78 27.5915L118.851 41.3872L136.576 1.25416Z" fill="black"/>
<path d="M102.83 27.0214L98.9665 2.96436L75.9008 7.06887V2.28027L67.8335 3.64844L74.4237 45.0356L97.4894 40.9311V45.7197L105.557 44.3515L102.83 27.0214ZM96.3532 34.6603L77.0371 38.0808V13.4537L96.3532 10.0332V34.6603Z" fill="black"/>
<path d="M177.254 27.0214L173.504 2.96436L150.438 7.06887V2.28027L142.371 3.64844L148.961 45.0356L172.027 40.9311V45.7197L180.094 44.3515L177.254 27.0214ZM170.777 34.6603L151.461 38.0808V13.4537L170.777 10.0332V34.6603Z" fill="black"/>
<path d="M198.16 24.285L211 22.0047V2.39429L186.798 6.61282V2.28027L178.731 3.64844L185.321 45.7197L186.684 45.4917V26.3373L189.298 25.8812L202.251 45.8337L210.886 44.3515L193.729 25.0831L198.16 24.285ZM193.275 20.2945L186.798 21.4347V11.6294L206.114 8.20901V18.0142L193.275 20.2945Z" fill="black"/>
<path d="M4.88584 40.019L27.3834 36.0285L27.3834 26.1093L17.7254 27.8195V26.5653L32.1556 20.4085L32.1556 35.1164H32.2693V40.133L0 45.8337L0 7.98099L32.2693 2.28027V4.1045L4.88584 15.734L4.88584 40.019Z" fill="black"/>
</svg>
