<svg width="89" height="20" viewBox="0 0 89 20" fill="none" xmlns="http://www.w3.org/2000/svg">
<path d="M28.836 12.5891V16.7221L15.3918 19.0974V1.28266L17.3871 0.950119V17.4347L28.836 12.5891Z" fill="black"/>
<path d="M57.1021 0.522565L57.0071 0L44.0854 4.46556L44.7505 8.50356L53.9192 2.80285L46.4607 19.4774L46.5558 20L59.4774 15.5819L58.8598 11.4964L49.6911 17.2447L57.1021 0.522565Z" fill="black"/>
<path d="M42.9929 11.2589L41.3777 1.23515L31.734 2.94537V0.950119L28.3611 1.52019L31.1164 18.7648L40.7601 17.0546V19.0499L44.1331 18.4798L42.9929 11.2589ZM40.2851 14.4418L32.2091 15.867V5.6057L40.2851 4.18052V14.4418Z" fill="black"/>
<path d="M74.1092 11.2589L72.5415 1.23515L62.8978 2.94537V0.950119L59.5249 1.52019L62.2802 18.7648L71.9239 17.0546V19.0499L75.2969 18.4798L74.1092 11.2589ZM71.4014 14.4418L63.3254 15.867V5.6057L71.4014 4.18052V14.4418Z" fill="black"/>
<path d="M82.8503 10.1188L88.2185 9.16865V0.997625L78.0997 2.75534V0.950119L74.7268 1.52019L77.4822 19.0499L78.0522 18.9549V10.9739L79.1449 10.7838L84.5605 19.0974L88.171 18.4798L80.9976 10.4513L82.8503 10.1188ZM80.8076 8.45606L78.0997 8.93112V4.84561L86.1757 3.42043V7.50594L80.8076 8.45606Z" fill="black"/>
<path d="M2.04276 16.6746L11.4489 15.0119V10.8789L7.41093 11.5914V11.0689L13.4442 8.50356V14.6318H13.4917V16.7221L0 19.0974V3.32542L13.4917 0.950119V1.71021L2.04276 6.55582V16.6746Z" fill="black"/>
</svg>
