<svg width="18" height="18" viewBox="0 0 18 18" fill="none" xmlns="http://www.w3.org/2000/svg">
<path d="M14.62 0H3.37999C1.51327 0 0 1.51327 0 3.38V14.62C0 16.4867 1.51327 18 3.37999 18H14.62C16.4867 18 18 16.4867 18 14.62V3.38C18 1.51327 16.4867 0 14.62 0Z" fill="white"/>
<path d="M12.3599 2.3198C11.0099 1.5098 9.53991 1.33979 7.99991 1.55979C4.96991 1.98979 2.9899 4.34979 3.1899 7.39979C3.2599 8.55979 3.56991 9.50979 4.50991 10.2598C4.62991 10.3598 5.3299 10.5598 5.5199 9.7298C5.5899 9.4398 5.5499 9.21979 5.3999 8.93979C5.1599 8.47979 4.93991 7.96979 4.88991 7.45979C4.63991 4.9098 6.5699 2.9498 9.1499 3.0898C10.9599 3.1798 12.2499 4.14979 12.6499 5.77979C12.9799 7.15979 12.7599 8.47979 12.0399 9.69979C11.6899 10.2898 11.1899 10.7198 10.5099 10.8998C9.16991 11.2598 8.21991 10.3298 8.61991 9.10979C8.66991 8.93979 8.7199 8.76979 8.7699 8.59979C8.9499 7.87979 9.18991 7.16979 9.30991 6.43979C9.45991 5.52979 8.8199 4.84979 7.9699 5.02979C7.6299 5.09979 7.26991 5.33979 7.02991 5.60979C6.44991 6.26979 6.37991 7.09979 6.58991 7.91979C6.72991 8.47979 6.7199 8.99979 6.5499 9.53979C6.4499 9.87979 6.3699 10.2198 6.2999 10.5698C6.0599 11.7798 5.7999 12.9798 5.5999 14.1898C5.5399 14.5698 5.5299 15.0898 5.5499 15.5098L5.58991 16.8098C5.77991 16.6598 6.6299 15.4498 6.7899 15.1498C6.8199 15.0898 6.83991 15.0598 6.83991 15.0598C7.41991 13.9198 7.6699 12.7098 7.9899 11.4898C8.4299 12.0298 8.9399 12.3298 9.5699 12.4398C10.6599 12.6398 11.6499 12.3498 12.5399 11.7398C13.8799 10.8098 14.5199 9.4498 14.7999 7.8898C15.1999 5.6598 14.2499 3.48979 12.3699 2.35979L12.3599 2.3198Z" fill="#1B1B1B"/>
</svg>
