<svg width="18" height="18" viewBox="0 0 18 18" fill="none" xmlns="http://www.w3.org/2000/svg">
<path d="M14.62 0H3.38C1.51328 0 0 1.51328 0 3.38V14.62C0 16.4867 1.51328 18 3.38 18H14.62C16.4867 18 18 16.4867 18 14.62V3.38C18 1.51328 16.4867 0 14.62 0Z" fill="white"/>
<path d="M15.34 4.45995C15.94 3.97995 16.42 3.46995 16.61 2.75995C16.07 2.96995 15.55 3.18995 15.03 3.36995C14.82 3.43995 14.59 3.57995 14.36 3.34995C13.89 2.88995 13.33 2.61995 12.69 2.49995C11.57 2.30995 10.58 2.56995 9.75005 3.34995C9.00005 4.05995 8.64005 4.92995 8.70005 5.96995C8.70005 6.15995 8.70005 6.34995 8.70005 6.54995C8.70005 6.54995 8.62005 6.54995 8.48005 6.52995C7.15005 6.39995 5.94005 6.03995 4.84005 5.46995C4.02005 5.05995 3.19005 4.50995 2.49005 3.74995C2.37005 3.62995 2.00005 3.15995 1.93005 3.05995C1.93005 3.05995 1.67005 3.36995 1.50005 3.88995C1.23005 4.92995 1.42005 5.90995 2.09005 6.79995C2.27005 7.04995 2.53005 7.23995 2.76005 7.45995C2.75005 7.48995 2.73005 7.50995 2.72005 7.53995C2.28005 7.41995 1.84005 7.29995 1.40005 7.17995C1.29005 8.28995 2.07005 9.86995 3.87005 10.5C3.45005 10.52 3.02005 10.54 2.55005 10.56C3.10005 11.94 4.11005 12.67 5.60005 12.86C4.22005 13.89 2.71005 14.32 1.05005 14.27C1.05005 14.27 6.55005 17.35 11.4 14.03C12.21 13.46 14.93 11.16 15.42 6.80995C15.4 6.74995 15.52 5.88995 15.54 5.51995C15.54 5.51995 16.31 5.04995 17.02 4.11995C16.45 4.20995 15.95 4.46995 15.34 4.45995Z" fill="#1B1B1B"/>
</svg>
