<svg width="18" height="18" viewBox="0 0 18 18" fill="none" xmlns="http://www.w3.org/2000/svg">
<path d="M14.62 0H3.37999C1.51327 0 0 1.51328 0 3.38V14.62C0 16.4867 1.51327 18 3.37999 18H14.62C16.4867 18 18 16.4867 18 14.62V3.38C18 1.51328 16.4867 0 14.62 0Z" fill="white"/>
<path d="M16.6002 11.4201C16.6002 9.30008 14.6102 7.58008 12.1502 7.58008C9.69019 7.58008 7.7002 9.30008 7.7002 11.4201C7.7002 13.5401 9.69019 15.2601 12.1502 15.2601C12.6702 15.2601 13.1602 15.1801 13.6202 15.0401L15.1002 15.5601L15.0002 14.3601C15.9802 13.6501 16.6002 12.6001 16.6002 11.4101V11.4201ZM10.1302 10.7901C9.83019 10.7901 9.58018 10.5501 9.58018 10.2401C9.58018 9.93008 9.82019 9.69008 10.1302 9.69008C10.4402 9.69008 10.6802 9.93008 10.6802 10.2401C10.6802 10.5501 10.4402 10.7901 10.1302 10.7901ZM13.3902 10.7901C13.0902 10.7901 12.8402 10.5501 12.8402 10.2401C12.8402 9.93008 13.0802 9.69008 13.3902 9.69008C13.7002 9.69008 13.9402 9.93008 13.9402 10.2401C13.9402 10.5501 13.7002 10.7901 13.3902 10.7901Z" fill="#1B1B1B"/>
<path d="M12.0501 6.91018C11.8401 4.54018 9.59008 2.68018 6.83008 2.68018C3.94008 2.68018 1.59009 4.73018 1.59009 7.27018C1.59009 8.85018 2.51009 10.2502 3.90009 11.0702L3.57008 12.8302L5.46008 11.7002C5.90008 11.8002 6.36008 11.8602 6.83008 11.8602C6.90008 11.8602 6.97008 11.8602 7.04008 11.8602C7.03008 11.7202 7.02008 11.5802 7.02008 11.4302C7.02008 8.97018 9.27008 6.96018 12.0501 6.91018ZM8.98009 5.80017C9.28009 5.80017 9.53009 6.04018 9.53009 6.35018C9.53009 6.66018 9.29009 6.90018 8.98009 6.90018C8.67009 6.90018 8.43008 6.66018 8.43008 6.35018C8.43008 6.04018 8.67009 5.80017 8.98009 5.80017ZM4.98009 6.89017C4.68009 6.89017 4.43008 6.65018 4.43008 6.34018C4.43008 6.03018 4.67009 5.79018 4.98009 5.79018C5.29009 5.79018 5.53009 6.03018 5.53009 6.34018C5.53009 6.65018 5.29009 6.89017 4.98009 6.89017Z" fill="#1B1B1B"/>
</svg>
