<svg width="18" height="18" viewBox="0 0 18 18" fill="none" xmlns="http://www.w3.org/2000/svg">
<path d="M14.62 0H3.38C1.51328 0 0 1.51328 0 3.38V14.62C0 16.4867 1.51328 18 3.38 18H14.62C16.4867 18 18 16.4867 18 14.62V3.38C18 1.51328 16.4867 0 14.62 0Z" fill="white"/>
<path d="M14.45 3.22998H3.84004C2.15004 3.22998 0.780029 4.59998 0.780029 6.28998V11.71C0.780029 13.4 2.15004 14.77 3.84004 14.77H14.45C16.14 14.77 17.51 13.4 17.51 11.71V6.28998C17.51 4.59998 16.14 3.22998 14.45 3.22998ZM7.56003 11.06V6.82998L11.73 8.93998L7.56003 11.05V11.06Z" fill="#1B1B1B"/>
</svg>
